# xmcd
#
# Track frame offsets:
#	150
#	26788
#	48430
#	69649
#	75246
#	102064
#	127091
#	155019
#	158842
#	173650
#	191652
#	212420
#	233053
#	249923
#
# Disc length: 3390 seconds
# Revision: 1
# Processed by: cddbd v1.5.2PL0 Copyright (c) Steve Scherf et al.
# Submitted via: dBpowerAMP V12.0
#
DISCID=af0d3c0e
DTITLE=אהוד בנאי - רסיסי לילה
DYEAR=2011
DGENRE=Israeli
TTITLE0=אני הולך
TTITLE1=משורר וילד
TTITLE2=אבן ספיר
TTITLE3=רסיס לילה 1
TTITLE4=מעשה בארבעה
TTITLE5=רגעי קסם
TTITLE6=שיר זמני
TTITLE7=רסיס לילה 2
TTITLE8=ר"ג - גבעתיים
TTITLE9=כמו ציפור ושרה
TTITLE10=פרפרי הקצב
TTITLE11=מפתח הלב
TTITLE12=עד הפעם הבאה
TTITLE13=רסיס לילה 3
EXTD=
EXTT0=
EXTT1=
EXTT2=
EXTT3=
EXTT4=
EXTT5=
EXTT6=
EXTT7=
EXTT8=
EXTT9=
EXTT10=
EXTT11=
EXTT12=
EXTT13=
PLAYORDER=
